<svg xmlns="http://www.w3.org/2000/svg" x="0px" y="0px"
width="64" height="64"
viewBox="0 0 172 172"
style=" fill:#000000;"><g fill="none" fill-rule="nonzero" stroke="none" stroke-width="1" stroke-linecap="butt" stroke-linejoin="miter" stroke-miterlimit="10" stroke-dasharray="" stroke-dashoffset="0" font-family="none" font-weight="none" font-size="none" text-anchor="none" style="mix-blend-mode: normal"><path d="M0,172v-172h172v172z" fill="none"></path><g fill="#3498db"><path d="M86,11.60034c-0.48291,0 -0.95532,0.12598 -1.38574,0.37793l-67.1875,40.3125c-0.80835,0.48291 -1.30176,1.36475 -1.30176,2.29907v29.5625c0,0.97632 0.5249,1.86865 1.36475,2.35156c0.83984,0.47241 1.87915,0.46191 2.70849,-0.04199l65.80176,-39.48315l65.80176,39.48315c0.41992,0.25195 0.90283,0.37793 1.38574,0.37793c0.46191,0 0.91333,-0.10498 1.32276,-0.33594c0.83984,-0.48291 1.36474,-1.37524 1.36474,-2.35156v-29.5625c0,-0.93433 -0.49341,-1.81616 -1.30176,-2.29907l-67.1875,-40.3125c-0.41992,-0.25195 -0.90283,-0.37793 -1.38574,-0.37793zM86,17.42676l64.5,38.6958v23.28467l-63.11426,-37.86646c-0.41992,-0.25195 -0.90283,-0.38843 -1.38574,-0.38843c-0.48291,0 -0.95532,0.13647 -1.38574,0.38843l-63.11426,37.86646v-23.28467zM86,65.35034c-0.48291,0 -0.95532,0.12598 -1.38574,0.37793l-67.1875,40.3125c-0.80835,0.48291 -1.30176,1.36475 -1.30176,2.29907v29.5625c0,0.97632 0.5249,1.86865 1.36475,2.35156c0.83984,0.47241 1.87915,0.46191 2.70849,-0.04199l65.80176,-39.48315l65.80176,39.48315c0.41992,0.25195 0.90283,0.37793 1.38574,0.37793c0.46191,0 0.91333,-0.10498 1.32276,-0.33594c0.83984,-0.48291 1.36474,-1.37524 1.36474,-2.35156v-29.5625c0,-0.93433 -0.49341,-1.81616 -1.30176,-2.29907l-67.1875,-40.3125c-0.41992,-0.25195 -0.90283,-0.37793 -1.38574,-0.37793zM86,71.17676l64.5,38.6958v23.28467l-63.11426,-37.86646c-0.41992,-0.25195 -0.90283,-0.38843 -1.38574,-0.38843c-0.48291,0 -0.95532,0.13647 -1.38574,0.38843l-63.11426,37.86646v-23.28467zM84.28882,115.43652c-0.33594,0.05249 -0.68237,0.15747 -1.00781,0.34643c-1.28076,0.74536 -1.72168,2.39355 -0.97632,3.67432l2.6875,4.65064c0.49341,0.86084 1.39624,1.34375 2.32007,1.34375c0.46191,0 0.92383,-0.11548 1.34375,-0.35693c1.29126,-0.74536 1.73218,-2.39355 0.98682,-3.67432l-2.6875,-4.65064c-0.5564,-0.96582 -1.6272,-1.45923 -2.66651,-1.33325zM72.65698,122.16577c-0.34643,0.04199 -0.69287,0.14697 -1.00781,0.33594c-1.29126,0.74536 -1.72168,2.39355 -0.97632,3.67432l2.6875,4.65064c0.49341,0.86084 1.38574,1.34375 2.32007,1.34375c0.46191,0 0.92383,-0.11548 1.34375,-0.35693c1.29126,-0.74536 1.72168,-2.39355 0.98682,-3.67432l-2.6875,-4.65064c-0.5669,-0.96582 -1.6272,-1.44873 -2.66651,-1.32276zM102.6919,126.22852c-1.03931,-0.14697 -2.11011,0.31494 -2.677,1.27026c-0.76636,1.28076 -0.35693,2.92896 0.92383,3.69531l8.32495,4.99707c0.43042,0.26245 0.91333,0.37793 1.38574,0.37793c0.91333,0 1.79517,-0.46191 2.29907,-1.30176c0.76636,-1.28076 0.35693,-2.91846 -0.91333,-3.68481l-8.33545,-4.99707c-0.31494,-0.18897 -0.66138,-0.30445 -1.00781,-0.35693zM61.01465,128.87402c-0.33594,0.05249 -0.68237,0.15747 -1.00781,0.34643c-1.28076,0.74536 -1.72168,2.39355 -0.97632,3.67432l2.6875,4.65064c0.50391,0.86084 1.39624,1.34375 2.32007,1.34375c0.46191,0 0.92383,-0.11548 1.34375,-0.35693c1.29126,-0.74536 1.73218,-2.39355 0.98682,-3.67432l-2.6875,-4.65064c-0.5564,-0.96582 -1.6272,-1.45923 -2.66651,-1.33325zM49.38281,135.59277c-0.34643,0.05249 -0.69287,0.15747 -1.00781,0.34643c-1.29126,0.74536 -1.72168,2.39355 -0.97632,3.67432l2.6875,4.65064c0.49341,0.86084 1.39624,1.34375 2.32007,1.34375c0.46191,0 0.92383,-0.11548 1.34375,-0.35693c1.29126,-0.74536 1.72168,-2.39355 0.97632,-3.67432l-2.6875,-4.65064c-0.5564,-0.96582 -1.6167,-1.45923 -2.65601,-1.33325zM122.13428,137.89185c-1.03931,-0.14697 -2.09961,0.31494 -2.677,1.27026c-0.76636,1.28076 -0.34643,2.92896 0.92383,3.69531l28.60718,17.16431c0.43042,0.26245 0.90283,0.38843 1.37524,0.38843c0.91333,0 1.80566,-0.47241 2.30957,-1.31226c0.75586,-1.27026 0.34643,-2.92896 -0.92383,-3.68482l-28.60718,-17.16431c-0.31494,-0.18896 -0.66138,-0.30444 -1.00781,-0.35693zM37.75098,142.31152c-0.34643,0.05249 -0.69287,0.15747 -1.00781,0.34643c-1.29126,0.74536 -1.73218,2.39355 -0.98682,3.67432l2.6875,4.65064c0.50391,0.86084 1.39624,1.34375 2.33057,1.34375c0.46191,0 0.91333,-0.11548 1.34375,-0.35693c1.28076,-0.74536 1.72168,-2.39355 0.97632,-3.67432l-2.6875,-4.65064c-0.5564,-0.96582 -1.6272,-1.45923 -2.65601,-1.33325zM26.10864,149.03027c-0.34643,0.05249 -0.69287,0.15747 -1.00781,0.34643c-1.29126,0.74536 -1.72168,2.39355 -0.97632,3.67432l2.6875,4.65064c0.49341,0.86084 1.39624,1.34375 2.33057,1.34375c0.45142,0 0.91333,-0.11548 1.33325,-0.35693c1.29126,-0.74536 1.72168,-2.39355 0.97632,-3.67432l-2.6875,-4.65064c-0.5564,-0.96582 -1.6167,-1.45923 -2.65601,-1.33325z"></path></g></g></svg>