<svg xmlns="http://www.w3.org/2000/svg" x="0px" y="0px"
width="64" height="64"
viewBox="0 0 172 172"
style=" fill:#000000;"><g transform=""><g fill="none" fill-rule="nonzero" stroke="none" stroke-width="1" stroke-linecap="butt" stroke-linejoin="miter" stroke-miterlimit="10" stroke-dasharray="" stroke-dashoffset="0" font-family="none" font-weight="none" font-size="none" text-anchor="none" style="mix-blend-mode: normal"><path d="M0,172v-172h172v172z" fill="none"></path><g fill="#3498db"><path d="M110.1875,5.375c-0.68237,0 -1.37524,0.26245 -1.90015,0.78735l-77.9375,77.9375c-1.0498,1.0498 -1.0498,2.75049 0,3.80029l77.9375,77.9375c0.5249,0.5249 1.20728,0.78735 1.90015,0.78735c0.69287,0 1.37524,-0.26245 1.90015,-0.78735l10.75,-10.75c1.0498,-1.0498 1.0498,-2.75049 0,-3.80029l-65.28735,-65.28735l65.28735,-65.28735c1.0498,-1.0498 1.0498,-2.75049 0,-3.80029l-10.75,-10.75c-0.5249,-0.5249 -1.21777,-0.78735 -1.90015,-0.78735zM110.1875,11.86279l6.94971,6.94971l-65.28735,65.28735c-1.0498,1.0498 -1.0498,2.75049 0,3.80029l65.28735,65.28735l-6.94971,6.94971l-74.13721,-74.13721zM130.57471,24.1875c-0.68238,0 -1.37524,0.26245 -1.90015,0.78735c-1.0498,1.0498 -1.0498,2.75049 0,3.80029l3.80029,3.80029c0.5249,0.5249 1.20728,0.78735 1.90015,0.78735c0.69287,0 1.37524,-0.26245 1.90015,-0.78735c1.0498,-1.0498 1.0498,-2.75049 0,-3.80029l-3.80029,-3.80029c-0.5249,-0.5249 -1.21777,-0.78735 -1.90015,-0.78735zM121.07397,33.68823c-0.68237,0 -1.37524,0.26245 -1.90015,0.78735c-1.0498,1.0498 -1.0498,2.75049 0,3.80029l3.80029,3.80029c0.5249,0.5249 1.20727,0.78735 1.90015,0.78735c0.69287,0 1.37524,-0.26245 1.90015,-0.78735c1.0498,-1.0498 1.0498,-2.75049 0,-3.80029l-3.80029,-3.80029c-0.5249,-0.5249 -1.21777,-0.78735 -1.90015,-0.78735zM111.57324,43.18897c-0.68237,0 -1.37524,0.26245 -1.90015,0.78735c-1.0498,1.0498 -1.0498,2.75049 0,3.80029l3.80029,3.80029c0.5249,0.5249 1.20728,0.78735 1.90015,0.78735c0.69287,0 1.37524,-0.26245 1.90015,-0.78735c1.0498,-1.0498 1.0498,-2.75049 0,-3.80029l-3.80029,-3.80029c-0.5249,-0.5249 -1.21777,-0.78735 -1.90015,-0.78735zM102.07251,52.6897c-0.69287,0 -1.37524,0.26245 -1.91065,0.78735c-1.0498,1.0498 -1.0498,2.75049 0,3.80029l3.81079,3.81079c0.5249,0.5144 1.20728,0.77685 1.90015,0.77685c0.69287,0 1.37524,-0.26245 1.90015,-0.77685c1.0498,-1.0603 1.0498,-2.75049 0,-3.81079l-3.80029,-3.80029c-0.5354,-0.5249 -1.21777,-0.78735 -1.90015,-0.78735zM92.56128,62.19043c-0.68237,0 -1.36474,0.26245 -1.90015,0.79785c-1.0498,1.0498 -1.0498,2.73999 0,3.78979l3.81079,3.81079c0.5144,0.5144 1.20728,0.78735 1.90015,0.78735c0.68237,0 1.37524,-0.27295 1.88965,-0.78735c1.0603,-1.0498 1.0603,-2.75049 0,-3.81079l-3.78979,-3.78979c-0.5354,-0.5354 -1.21777,-0.79785 -1.91065,-0.79785zM83.06055,71.69116c-0.68237,0 -1.36474,0.26245 -1.88965,0.78735c-1.0603,1.0603 -1.0603,2.75049 0,3.81079l3.78979,3.78979c0.5249,0.5249 1.21777,0.79785 1.91065,0.79785c0.68237,0 1.37524,-0.27295 1.90015,-0.79785c1.0498,-1.0498 1.0498,-2.75049 0,-3.78979l-3.81079,-3.81079c-0.5249,-0.5249 -1.20727,-0.78735 -1.90015,-0.78735zM73.32886,83.10254c-1.48022,0 -2.6875,1.19678 -2.6875,2.6875c0,1.48022 1.20728,2.6875 2.6875,2.6875h5.375c1.49072,0 2.6875,-1.20728 2.6875,-2.6875c0,-1.49072 -1.19678,-2.6875 -2.6875,-2.6875zM86.87134,91.12305c-0.69287,0 -1.37524,0.26245 -1.91065,0.79785l-3.78979,3.78979c-1.0603,1.0603 -1.0603,2.75049 0,3.81079c0.5144,0.5249 1.20728,0.78735 1.88965,0.78735c0.69287,0 1.38574,-0.27295 1.90015,-0.78735l3.81079,-3.81079c1.0498,-1.0498 1.0498,-2.73999 0,-3.78979c-0.5354,-0.5354 -1.21777,-0.79785 -1.90015,-0.79785zM96.37207,100.62378c-0.69287,0 -1.37524,0.26245 -1.90015,0.78735l-3.81079,3.81079c-1.0498,1.0498 -1.0498,2.73999 0,3.78979c0.5249,0.5249 1.21777,0.79785 1.90015,0.79785c0.69287,0 1.38574,-0.27295 1.91065,-0.79785l3.78979,-3.78979c1.0603,-1.0603 1.0603,-2.75049 0,-3.81079c-0.5249,-0.5249 -1.20728,-0.78735 -1.88965,-0.78735zM105.8728,110.13501c-0.69287,0 -1.37524,0.25195 -1.90015,0.77685l-3.81079,3.81079c-1.0498,1.0498 -1.0498,2.75049 0,3.80029c0.5249,0.5249 1.21777,0.78735 1.91065,0.78735c0.68237,0 1.37524,-0.26245 1.90015,-0.78735l3.80029,-3.80029c1.0498,-1.0603 1.0498,-2.75049 0,-3.81079c-0.5249,-0.5249 -1.20728,-0.77685 -1.90015,-0.77685zM115.36304,119.63574c-0.68237,0 -1.36474,0.26245 -1.88965,0.78735l-3.80029,3.80029c-1.0498,1.0498 -1.0498,2.75049 0,3.80029c0.5249,0.5249 1.20728,0.78735 1.90015,0.78735c0.69287,0 1.37524,-0.26245 1.90015,-0.78735l3.80029,-3.80029c1.0498,-1.0498 1.0498,-2.75049 0,-3.80029c-0.5249,-0.5249 -1.21777,-0.78735 -1.91065,-0.78735zM124.87427,129.13647c-0.68237,0 -1.37524,0.26245 -1.90015,0.78735l-3.80029,3.80029c-1.0498,1.0498 -1.0498,2.75049 0,3.80029c0.5249,0.5249 1.20728,0.78735 1.90015,0.78735c0.69287,0 1.37524,-0.26245 1.90015,-0.78735l3.80029,-3.80029c1.0498,-1.0498 1.0498,-2.75049 0,-3.80029c-0.5249,-0.5249 -1.21777,-0.78735 -1.90015,-0.78735zM134.375,138.63721c-0.68237,0 -1.37524,0.26245 -1.90015,0.78735l-3.80029,3.80029c-1.0498,1.0498 -1.0498,2.75049 0,3.80029c0.5249,0.5249 1.20728,0.78735 1.90015,0.78735c0.69287,0 1.37524,-0.26245 1.90015,-0.78735l3.80029,-3.80029c1.0498,-1.0498 1.0498,-2.75049 0,-3.80029c-0.5249,-0.5249 -1.21777,-0.78735 -1.90015,-0.78735z"></path></g></g></g></svg>