<svg xmlns="http://www.w3.org/2000/svg" x="0px" y="0px"
width="64" height="64"
viewBox="0 0 172 172"
style=" fill:#000000;"><g transform=""><g fill="none" fill-rule="nonzero" stroke="none" stroke-width="1" stroke-linecap="butt" stroke-linejoin="miter" stroke-miterlimit="10" stroke-dasharray="" stroke-dashoffset="0" font-family="none" font-weight="none" font-size="none" text-anchor="none" style="mix-blend-mode: normal"><path d="M0,172v-172h172v172z" fill="none"></path><g fill="#3498db"><path d="M56.4375,5.375c-0.68733,0 -1.37474,0.26195 -1.90015,0.78735l-10.75,10.75c-1.05081,1.05081 -1.05081,2.74948 0,3.80029l65.28735,65.28735l-65.28735,65.28735c-1.05081,1.05081 -1.05081,2.74948 0,3.80029l10.75,10.75c0.52406,0.52406 1.21215,0.78735 1.90015,0.78735c0.688,0 1.37608,-0.26329 1.90015,-0.78735l77.9375,-77.9375c1.05081,-1.05081 1.05081,-2.74948 0,-3.80029l-77.9375,-77.9375c-0.52541,-0.52541 -1.21282,-0.78735 -1.90015,-0.78735zM56.4375,11.86279l74.13721,74.13721l-74.13721,74.13721l-6.94971,-6.94971l65.28735,-65.28735c1.05081,-1.05081 1.05081,-2.74948 0,-3.80029l-65.28735,-65.28735zM36.05029,24.1875c-0.68733,0 -1.37474,0.26195 -1.90015,0.78735l-3.80029,3.80029c-1.05081,1.05081 -1.05081,2.74948 0,3.80029c0.52406,0.52406 1.21215,0.78735 1.90015,0.78735c0.688,0 1.37608,-0.26329 1.90015,-0.78735l3.80029,-3.80029c1.05081,-1.05081 1.05081,-2.74948 0,-3.80029c-0.52541,-0.52541 -1.21282,-0.78735 -1.90015,-0.78735zM45.55103,33.68823c-0.68733,0 -1.37474,0.26195 -1.90015,0.78735l-3.80029,3.80029c-1.05081,1.05081 -1.05081,2.74948 0,3.80029c0.52406,0.52406 1.21215,0.78735 1.90015,0.78735c0.688,0 1.37608,-0.26329 1.90015,-0.78735l3.80029,-3.80029c1.05081,-1.05082 1.05081,-2.74948 0,-3.80029c-0.52541,-0.52541 -1.21282,-0.78735 -1.90015,-0.78735zM55.05176,43.18896c-0.68733,0 -1.37474,0.26195 -1.90015,0.78735l-3.80029,3.80029c-1.04812,1.05081 -1.04812,2.75217 0,3.80029c0.52406,0.52406 1.21215,0.78735 1.90015,0.78735c0.688,0 1.37609,-0.26329 1.90015,-0.78735l3.80029,-3.80029c1.05081,-1.05081 1.05081,-2.74948 0,-3.80029c-0.52541,-0.52541 -1.21282,-0.78735 -1.90015,-0.78735zM64.55774,52.6897c-0.68733,0 -1.37474,0.26195 -1.90015,0.78735l-3.80554,3.80554c-1.04813,1.05081 -1.04813,2.74948 0,3.80029c0.52406,0.52406 1.21215,0.78735 1.90015,0.78735c0.688,0 1.37608,-0.26329 1.90015,-0.78735l3.80554,-3.80554c1.05081,-1.05081 1.05081,-2.74948 0,-3.80029c-0.52541,-0.52541 -1.21282,-0.78735 -1.90015,-0.78735zM74.05847,62.19568c-0.68733,0 -1.37474,0.26195 -1.90015,0.78735l-3.80029,3.80029c-1.05081,1.05081 -1.05081,2.75217 0,3.80029c0.52406,0.52406 1.21215,0.78735 1.90015,0.78735c0.688,0 1.37608,-0.26329 1.90015,-0.78735l3.80029,-3.80029c1.05081,-1.05081 1.05081,-2.74948 0,-3.80029c-0.52541,-0.52541 -1.21282,-0.78735 -1.90015,-0.78735zM83.5592,71.69641c-0.68733,0 -1.37474,0.26195 -1.90015,0.78735l-3.80029,3.80029c-1.05081,1.04812 -1.05081,2.74948 0,3.80029c0.52406,0.52406 1.21215,0.78735 1.90015,0.78735c0.688,0 1.37609,-0.26329 1.90015,-0.78735l3.80029,-3.80029c1.05081,-1.05081 1.05081,-2.74948 0,-3.80029c-0.52541,-0.52541 -1.21282,-0.78735 -1.90015,-0.78735zM87.91589,83.09729c-1.4835,0 -2.6875,1.204 -2.6875,2.6875c0,1.4835 1.204,2.6875 2.6875,2.6875h5.375c1.4835,0 2.6875,-1.204 2.6875,-2.6875c0,-1.4835 -1.204,-2.6875 -2.6875,-2.6875zM79.75891,91.1283c-0.68733,0 -1.37474,0.26195 -1.90015,0.78735c-1.05081,1.05081 -1.05081,2.74948 0,3.80029l3.80029,3.80029c0.52406,0.52406 1.21215,0.78735 1.90015,0.78735c0.688,0 1.37608,-0.2606 1.90015,-0.78735c1.05081,-1.05081 1.05081,-2.74948 0,-3.80029l-3.80029,-3.80029c-0.52541,-0.52541 -1.21282,-0.78735 -1.90015,-0.78735zM70.25818,100.62903c-0.68733,0 -1.37474,0.26195 -1.90015,0.78735c-1.05081,1.05081 -1.05081,2.74948 0,3.80029l3.80029,3.80029c0.52406,0.52406 1.21215,0.78735 1.90015,0.78735c0.688,0 1.37608,-0.26329 1.90015,-0.78735c1.05081,-1.05081 1.05081,-2.74948 0,-3.80029l-3.80029,-3.80029c-0.52541,-0.52541 -1.21282,-0.78735 -1.90015,-0.78735zM60.7522,110.12976c-0.68766,0 -1.37474,0.26195 -1.90015,0.78735c-1.05081,1.05081 -1.05081,2.74948 0,3.80029l3.80554,3.80554c0.52406,0.52407 1.21215,0.78735 1.90015,0.78735c0.688,0 1.37609,-0.26329 1.90015,-0.78735c1.05081,-1.05081 1.05081,-2.74948 0,-3.80029l-3.80554,-3.80554c-0.52406,-0.52541 -1.21248,-0.78735 -1.90015,-0.78735zM51.25671,119.63574c-0.68766,0 -1.37999,0.26195 -1.9054,0.78735c-1.05081,1.05081 -1.05081,2.74948 0,3.80029l3.80029,3.80029c0.52406,0.52406 1.21215,0.78735 1.90015,0.78735c0.688,0 1.37608,-0.26329 1.90015,-0.78735c1.05081,-1.05081 1.05081,-2.74948 0,-3.80029l-3.80029,-3.80029c-0.52406,-0.52541 -1.20723,-0.78735 -1.8949,-0.78735zM41.75073,129.13647c-0.68733,-0.00034 -1.37474,0.26195 -1.90015,0.78735c-1.05081,1.05081 -1.05081,2.74948 0,3.80029l3.80029,3.80029c0.52406,0.52406 1.21215,0.78735 1.90015,0.78735c0.688,0 1.37608,-0.26329 1.90015,-0.78735c1.05081,-1.05081 1.05081,-2.74948 0,-3.80029l-3.80029,-3.80029c-0.52541,-0.52406 -1.21282,-0.78702 -1.90015,-0.78735zM32.25,138.63721c-0.68733,0 -1.37474,0.26195 -1.90015,0.78735c-1.05081,1.05081 -1.05081,2.74948 0,3.80029l3.80029,3.80029c0.52406,0.52406 1.21215,0.78735 1.90015,0.78735c0.688,0 1.37609,-0.26329 1.90015,-0.78735c1.05081,-1.05081 1.05081,-2.74948 0,-3.80029l-3.80029,-3.80029c-0.52541,-0.52541 -1.21282,-0.78735 -1.90015,-0.78735z"></path></g></g></g></svg>